<?xml version="1.0" encoding="utf-8"?>
<!-- Generator: Adobe Illustrator 27.0.1, SVG Export Plug-In . SVG Version: 6.00 Build 0)  -->
<svg version="1.1" id="Layer_1" xmlns="http://www.w3.org/2000/svg" xmlns:xlink="http://www.w3.org/1999/xlink" x="0px" y="0px"
	 viewBox="0 0 307.4 307.4" style="enable-background:new 0 0 307.4 307.4;" xml:space="preserve">
<style type="text/css">
	.st0{fill:#8DA0CB;stroke:#8DA0CB;stroke-width:0.71;stroke-linecap:round;stroke-linejoin:round;stroke-miterlimit:10;}
	.st1{fill:#66C2A5;stroke:#66C2A5;stroke-width:0.71;stroke-linecap:round;stroke-linejoin:round;stroke-miterlimit:10;}
	.st2{fill:none;stroke:#8DA0CB;stroke-width:2.13;stroke-linejoin:round;stroke-miterlimit:10;}
	.st3{fill:none;stroke:#66C2A5;stroke-width:2.13;stroke-linejoin:round;stroke-miterlimit:10;}
	.st4{enable-background:new    ;}
	.st5{fill:#1A1A1A;}
	.st6{font-family:'ArialMT';}
	.st7{font-size:8.8px;}
	.st8{clip-path:url(#SVGID_00000109710439406344498470000006062859643727631524_);}
	.st9{clip-path:url(#SVGID_00000054980445019462983700000011018095896642516864_);}
	.st10{clip-path:url(#SVGID_00000180349808670782277470000001424615236986020786_);}
	.st11{clip-path:url(#SVGID_00000106843653952269762350000013100243952835502270_);}
	.st12{font-family:'MyriadPro-Regular';}
	.st13{font-size:8px;}
	.st14{font-size:10px;}
</style>
<g>
	<g>
		<ellipse class="st0" cx="70.5" cy="69.4" rx="4.2" ry="4.6"/>
		<ellipse class="st0" cx="290.9" cy="53.4" rx="4.2" ry="4.6"/>
		<ellipse class="st1" cx="70.5" cy="107.8" rx="4.2" ry="4.6"/>
		<ellipse class="st1" cx="290.9" cy="114" rx="4.2" ry="4.6"/>
		<line class="st2" x1="70.5" y1="69.4" x2="290.9" y2="53.4"/>
		<line class="st3" x1="70.5" y1="107.8" x2="290.9" y2="114"/>
	</g>
</g>
<g>
	<g>
		<ellipse class="st0" cx="70.5" cy="153.7" rx="4.2" ry="4.6"/>
		<ellipse class="st0" cx="290.9" cy="216.2" rx="4.2" ry="4.6"/>
		<ellipse class="st1" cx="70.5" cy="177.1" rx="4.2" ry="4.6"/>
		<ellipse class="st1" cx="290.9" cy="233.7" rx="4.2" ry="4.6"/>
		<line class="st2" x1="70.5" y1="153.7" x2="290.9" y2="216.2"/>
		<line class="st3" x1="70.5" y1="177.1" x2="290.9" y2="233.7"/>
	</g>
	<ellipse class="st1" cx="120.4" cy="294.3" rx="4.2" ry="4.6"/>
	<ellipse class="st0" cx="120.4" cy="280.3" rx="4.2" ry="4.6"/>
</g>
<g>
	<g>
		<text transform="matrix(1 0 0 1 9.962 79.694)" class="st4"><tspan x="0" y="0" class="st5 st6 st7">Assaults </tspan><tspan x="0" y="10.6" class="st5 st6 st7">per 1,000</tspan><tspan x="0" y="21.1" class="st5 st6 st7">people</tspan></text>
	</g>
</g>
<g>
	<g>
		<text transform="matrix(1 0 0 1 9.4386 170.5426)" class="st4"><tspan x="0" y="0" class="st5 st6 st7">Burglaries</tspan><tspan x="0" y="10.6" class="st5 st6 st7">per 1,000</tspan><tspan x="0" y="21.1" class="st5 st6 st7">people</tspan></text>
	</g>
</g>
<g>
	<defs>
		<rect id="SVGID_1_" x="19.8" y="253.6" width="132.5" height="16.9"/>
	</defs>
	<clipPath id="SVGID_00000153697293924637701150000000778464520487633282_">
		<use xlink:href="#SVGID_1_"  style="overflow:visible;"/>
	</clipPath>
	<g style="clip-path:url(#SVGID_00000153697293924637701150000000778464520487633282_);">
		<text transform="matrix(1 0 0 1 66.2225 265.2399)" class="st5 st6 st7">2010</text>
		<g>
			<defs>
				<rect id="SVGID_00000090974986890156479420000005507961766268371127_" x="152.9" y="201.6" width="132.5" height="16.9"/>
			</defs>
			<clipPath id="SVGID_00000040535305127966183540000015519308492073034115_">
				<use xlink:href="#SVGID_00000090974986890156479420000005507961766268371127_"  style="overflow:visible;"/>
			</clipPath>
			<g style="clip-path:url(#SVGID_00000040535305127966183540000015519308492073034115_);">
				<g>
					<text transform="matrix(1 0 0 1 207.3348 212.3662)" class="st5 st6 st7">2010</text>
				</g>
				<text transform="matrix(1 0 0 1 118.57 317.2263)" class="st5 st6 st7">2010</text>
			</g>
		</g>
	</g>
</g>
<g>
	<defs>
		<rect id="SVGID_00000064335708750028295870000014710303428892177572_" x="234.4" y="253.6" width="132.5" height="16.9"/>
	</defs>
	<clipPath id="SVGID_00000091707890038209356490000003664998239532479672_">
		<use xlink:href="#SVGID_00000064335708750028295870000014710303428892177572_"  style="overflow:visible;"/>
	</clipPath>
	<g style="clip-path:url(#SVGID_00000091707890038209356490000003664998239532479672_);">
		<text transform="matrix(1 0 0 1 280.8524 265.2399)" class="st5 st6 st7">2020</text>
		<g>
			<defs>
				<rect id="SVGID_00000062911240329781635250000013447203390338730171_" x="367.5" y="201.6" width="132.5" height="16.9"/>
			</defs>
			<clipPath id="SVGID_00000087400045829606016850000015968485356454754219_">
				<use xlink:href="#SVGID_00000062911240329781635250000013447203390338730171_"  style="overflow:visible;"/>
			</clipPath>
			<g style="clip-path:url(#SVGID_00000087400045829606016850000015968485356454754219_);">
				<g>
					<text transform="matrix(1 0 0 1 421.9646 212.3662)" class="st5 st6 st7">2010</text>
				</g>
				<text transform="matrix(1 0 0 1 333.1998 317.2263)" class="st5 st6 st7">2010</text>
			</g>
		</g>
	</g>
</g>
<text transform="matrix(1 0 0 1 63.824 60.6067)" class="st12 st13">170</text>
<text transform="matrix(1 0 0 1 64.6561 98.9733)" class="st12 st13">106</text>
<text transform="matrix(1 0 0 1 284.2021 45.4796)" class="st12 st13">196</text>
<text transform="matrix(1 0 0 1 287.0686 104.8522)" class="st12 st13">96</text>
<text transform="matrix(1 0 0 1 287.3962 248.9665)" class="st12 st13">45</text>
<text transform="matrix(1 0 0 1 64.6562 192.0365)" class="st12 st13">139</text>
<text transform="matrix(1 0 0 1 64.6561 145.244)" class="st12 st13">178</text>
<text transform="matrix(1 0 0 1 287.3962 207.3569)" class="st12 st13">74</text>
<g>
	<g>
		<text transform="matrix(1 0 0 1 28.1519 14.0198)" class="st4"><tspan x="0" y="0" class="st5 st6 st14">Assaults and burglaries do not decrease more in cities with </tspan><tspan x="0" y="12" class="st5 st6 st14">crime-free housing than cities without programs</tspan></text>
	</g>
</g>
<text transform="matrix(1 0 0 1 130.2935 282.1645)" class="st12 st13">Cities with Crime-Free Housing</text>
<text transform="matrix(1 0 0 1 130.5815 296.986)" class="st12 st13">Cities without a program</text>
</svg>
